<svg width="13" height="13" viewBox="0 0 13 13" fill="none" xmlns="http://www.w3.org/2000/svg">
<path d="M11.7 2.73684H9.1V1.36842C9.1 0.608947 8.5215 0 7.8 0H5.2C4.4785 0 3.9 0.608947 3.9 1.36842V2.73684H1.3C0.5785 2.73684 0.00649999 3.34579 0.00649999 4.10526L0 11.6316C0 12.3911 0.5785 13 1.3 13H11.7C12.4215 13 13 12.3911 13 11.6316V4.10526C13 3.34579 12.4215 2.73684 11.7 2.73684ZM7.8 2.73684H5.2V1.36842H7.8V2.73684Z" fill="#6A6A6B"/>
<rect x="1" y="4" width="11" height="8" rx="1.04778" fill="white"/>
</svg>
