<svg width="22" height="34" viewBox="0 0 22 34" fill="none" xmlns="http://www.w3.org/2000/svg">
<path d="M0.298871 26.5987C0.239016 26.9597 0.179162 27.5013 0.478435 28.3437C1.43611 30.9313 4.4887 32.4356 5.1471 32.7365C7.661 33.94 9.93547 34.0002 10.953 34.0002C11.4318 34.0002 13.3472 34.0002 15.7414 33.2179C16.6392 32.917 17.956 32.4958 19.3327 31.4728C20.6495 30.51 21.1882 29.6074 21.3677 29.3667C21.3677 29.3667 21.3677 29.3667 21.3677 29.3065C21.5473 29.0057 22.1458 28.0429 21.9663 26.8394C21.9663 26.6588 21.7268 25.5155 20.7692 24.7934C20.7692 24.7934 19.1531 23.7103 17.3575 24.6731C17.2976 24.6731 17.2377 24.7332 17.2377 24.7332C17.118 24.8536 16.9983 24.9138 16.9983 24.9138C16.8188 25.0943 16.1604 25.696 16.1005 25.7562C16.1005 25.7562 15.6815 26.1173 14.6041 26.8394C14.4844 26.8995 14.3647 27.0199 14.3647 27.0199L14.3049 27.0801C14.0056 27.2606 13.407 27.5615 12.6888 27.742C12.1501 27.8623 11.0129 28.2234 9.57635 27.8623C8.37925 27.6216 7.54129 27.0199 7.18216 26.7792C6.64347 26.4181 6.58361 26.2376 5.38652 25.2748C4.4887 24.5527 4.30913 24.4324 4.00986 24.3722C2.93248 24.0111 1.91495 24.5527 1.79524 24.6731C1.67553 24.6129 0.53829 25.2748 0.298871 26.5987Z" fill="#389FFF"/>
<path d="M21.3681 10.9531C21.3681 8.06474 21.428 5.11617 21.428 2.22777C21.3681 1.98707 21.2484 1.68619 20.9491 1.32515C20.7696 1.02427 20.2907 0.422521 19.4528 0.121646C19.2732 0.0614708 18.6148 -0.119054 17.8966 0.121646C16.9389 0.422521 16.5199 1.26497 16.4002 1.44549C16.2206 1.74637 16.1608 2.04724 16.1608 2.22777C16.1608 2.34812 16.1608 2.46847 16.1608 2.58882C14.5447 1.62602 12.6892 1.02427 10.6541 1.02427C4.78837 1.08445 0 5.89844 0 11.8558C0 17.8131 4.78837 22.5669 10.6541 22.5669C16.5199 22.5669 21.3083 17.7529 21.3083 11.8558C21.3681 11.5549 21.3083 11.254 21.3681 10.9531C21.3083 10.9531 21.3681 10.9531 21.3681 10.9531ZM10.6541 16.6698C7.96067 16.6698 5.86576 14.5035 5.86576 11.7956C5.86576 9.08771 8.02053 6.92142 10.714 6.92142C13.4074 6.92142 15.5622 9.08771 15.5622 11.7956C15.5622 14.5035 13.3476 16.6698 10.6541 16.6698Z" fill="#389FFF"/>
</svg>
