<svg width="33" height="34" viewBox="0 0 33 34" fill="none" xmlns="http://www.w3.org/2000/svg">
<path d="M31.2759 10.8418L31.2759 10.8417C30.4783 8.91674 29.3346 7.18876 27.877 5.7047C26.4294 4.22902 24.7107 3.05591 22.8184 2.2519C20.8766 1.42356 18.8147 1.00403 16.6897 1.00403L16.6196 1.00403L16.619 1.00403C14.4801 1.01478 12.4077 1.44502 10.4588 2.29129C8.58257 3.10354 6.88001 4.27873 5.44593 5.75127C4.00245 7.23173 2.86932 8.95265 2.08571 10.8707C1.27397 12.8566 0.864614 14.968 0.8752 17.1398C0.887128 19.6192 1.46243 22.0624 2.55621 24.2789V29.6564C2.55621 30.1229 2.73864 30.5706 3.06398 30.9011C3.38938 31.2316 3.83114 31.4176 4.29218 31.4176H9.58885C11.7714 32.5285 14.1773 33.1129 16.619 33.125H16.6196H16.6932C18.8076 33.125 20.8588 32.7091 22.7899 31.8951L22.7899 31.8951C24.6727 31.1007 26.385 29.9413 27.831 28.4818C29.2887 27.0155 30.4359 25.3018 31.2371 23.391C32.0701 21.4121 32.4935 19.3079 32.5041 17.1363C32.5147 14.9535 32.0983 12.8349 31.2759 10.8418ZM5.46782 28.4643V23.581V23.55L5.45338 23.5227L5.2959 23.2241C4.31776 21.3604 3.79721 19.2495 3.7868 17.1244C3.77295 13.6103 5.09486 10.3127 7.51952 7.82886L7.51958 7.82879C9.94066 5.34509 13.176 3.97152 16.6339 3.95737H16.6932C18.4275 3.95737 20.1093 4.29905 21.6941 4.97532L21.6942 4.97536C23.241 5.63404 24.6282 6.58153 25.8216 7.79367C27.0116 9.00227 27.9481 10.4151 28.5969 11.9865L28.5969 11.9866C29.2699 13.6144 29.6065 15.341 29.5995 17.1245C29.5786 20.6349 28.222 23.922 25.7801 26.3811C23.3484 28.8263 20.1233 30.1717 16.6897 30.1717L16.6308 30.1717C16.6306 30.1717 16.6305 30.1717 16.6304 30.1717C14.5391 30.161 12.4618 29.6326 10.6275 28.6394L10.3335 28.4795L10.3056 28.4643H10.2738H5.46782ZM14.8836 17.0645C14.8836 17.5499 15.0735 18.0157 15.4119 18.3595C15.7505 18.7034 16.21 18.8969 16.6897 18.8969C17.1693 18.8969 17.6288 18.7034 17.9674 18.3595C18.3059 18.0157 18.4957 17.5499 18.4957 17.0645C18.4957 16.5792 18.3059 16.1133 17.9674 15.7695C17.6288 15.4257 17.1693 15.2321 16.6897 15.2321C16.21 15.2321 15.7505 15.4257 15.4119 15.7695C15.0735 16.1133 14.8836 16.5792 14.8836 17.0645ZM21.8879 17.0645C21.8879 17.5499 22.0777 18.0157 22.4162 18.3595C22.7547 18.7034 23.2143 18.8969 23.6939 18.8969C24.1735 18.8969 24.6331 18.7034 24.9716 18.3595C25.3101 18.0157 25.4999 17.5499 25.4999 17.0645C25.4999 16.5792 25.3101 16.1133 24.9716 15.7695C24.6331 15.4257 24.1735 15.2321 23.6939 15.2321C23.2143 15.2321 22.7547 15.4257 22.4162 15.7695C22.0777 16.1133 21.8879 16.5792 21.8879 17.0645ZM7.87942 17.0645C7.87942 17.5499 8.06923 18.0157 8.4077 18.3595C8.74624 18.7034 9.20582 18.8969 9.68543 18.8969C10.1651 18.8969 10.6246 18.7034 10.9632 18.3595C11.3016 18.0157 11.4914 17.5499 11.4914 17.0645C11.4914 16.5792 11.3016 16.1133 10.9632 15.7695C10.6246 15.4257 10.1651 15.2321 9.68543 15.2321C9.20582 15.2321 8.74624 15.4257 8.40771 15.7695C8.06923 16.1133 7.87942 16.5792 7.87942 17.0645Z" fill="#389FFF" stroke="#389FFF" stroke-width="0.25"/>
</svg>
