<svg width="30" height="32" viewBox="0 0 30 32" fill="none" xmlns="http://www.w3.org/2000/svg">
<path d="M26.5021 18.5919V12.8774C26.5021 7.75097 22.8829 3.43245 17.98 2.13371C17.4947 0.957673 16.3087 0.129028 14.9074 0.129028C13.5061 0.129028 12.3201 0.957673 11.8348 2.13371C6.93195 3.43405 3.31276 7.75097 3.31276 12.8774V18.5919L0.485321 21.3121C0.331207 21.4598 0.208986 21.6354 0.125695 21.8288C0.0424035 22.0221 -0.000313799 22.2294 1.73534e-06 22.4387V25.6258C1.73534e-06 26.0484 0.174512 26.4538 0.485144 26.7526C0.795775 27.0515 1.21708 27.2193 1.65638 27.2193H28.1584C28.5977 27.2193 29.019 27.0515 29.3297 26.7526C29.6403 26.4538 29.8148 26.0484 29.8148 25.6258V22.4387C29.8151 22.2294 29.7724 22.0221 29.6891 21.8288C29.6058 21.6354 29.4836 21.4598 29.3295 21.3121L26.5021 18.5919ZM26.5021 24.0323H3.31276V23.0984L6.1402 20.3782C6.29431 20.2305 6.41653 20.0549 6.49982 19.8616C6.58311 19.6682 6.62583 19.4609 6.62552 19.2516V12.8774C6.62552 8.484 10.3408 4.90967 14.9074 4.90967C19.474 4.90967 23.1893 8.484 23.1893 12.8774V19.2516C23.1893 19.6755 23.3632 20.0803 23.6746 20.3782L26.5021 23.0984V24.0323ZM14.9074 32C15.9332 32.0012 16.9339 31.695 17.7704 31.1238C18.607 30.5526 19.2377 29.7449 19.5751 28.8129H10.2397C10.5771 29.7449 11.2078 30.5526 12.0444 31.1238C12.8809 31.695 13.8816 32.0012 14.9074 32Z" fill="#389FFF"/>
</svg>
