<svg width="15" height="15" viewBox="0 0 15 15" fill="none" xmlns="http://www.w3.org/2000/svg">
<path d="M14.1433 0H7.28676C6.81537 0 6.42969 0.374969 6.42969 0.833265V2.17482L6.43826 2.18316L10.7236 5.93285C11.2636 6.39948 11.5721 7.08276 11.5721 7.79103V8.33265H13.2863V9.99918H11.5721V11.6657H13.2863V13.3322H11.5721V14.9988H14.1433C14.6147 14.9988 15.0004 14.6238 15.0004 14.1655V0.833265C15.0004 0.374969 14.6147 0 14.1433 0ZM9.85798 3.33306H8.14383V1.66653H9.85798V3.33306ZM13.2863 6.66612H11.5721V4.99959H13.2863V6.66612ZM13.2863 3.33306H11.5721V1.66653H13.2863V3.33306Z" fill="#6A6A6B"/>
<path d="M9.64207 14.1668V7.79553C9.6418 7.67932 9.61808 7.56444 9.57241 7.4583C9.52674 7.35216 9.46015 7.2571 9.37691 7.17923L5.35941 3.43145C5.21378 3.28975 5.02079 3.21212 4.82106 3.21492C4.62822 3.21492 4.43538 3.28987 4.28271 3.43145L0.265206 7.17923C0.180758 7.25607 0.11334 7.35094 0.0675723 7.45731C0.021805 7.56369 -0.00122863 7.67907 5.05017e-05 7.79553V14.1668C5.05017e-05 14.6248 0.361626 14.9996 0.803552 14.9996H2.41056C2.85248 14.9996 3.21406 14.6248 3.21406 14.1668V10.8354H6.42806V14.1668C6.42806 14.6248 6.78964 14.9996 7.23156 14.9996H8.83857C9.28049 14.9996 9.64207 14.6248 9.64207 14.1668Z" fill="#6A6A6B"/>
</svg>
