<svg width="26" height="26" viewBox="0 0 26 26" fill="none" xmlns="http://www.w3.org/2000/svg">
<path d="M23.717 0C23.022 0 22.053 0.031 21.03 0.125C18.983 0.316 16.62 0.66 15.155 2.125C13.925 3.355 11.381 6.621 9.03 9.688C8.565 10.293 8.584 10.281 8.155 10.844L6.436 10.75C5.80694 10.7153 5.17863 10.8304 4.6027 11.0858C4.02676 11.3411 3.51964 11.7295 3.123 12.219L1.031 14.78L0 16.093L1.624 16.405L4.906 17.062L8.749 20.905L9.406 24.187L9.75 25.812L11.03 24.78L13.593 22.687C14.0825 22.2904 14.4709 21.7832 14.7262 21.2073C14.9816 20.6314 15.0967 20.0031 15.062 19.374L14.968 17.686C15.55 17.246 15.531 17.256 16.156 16.78C19.23 14.425 22.507 11.897 23.718 10.687C25.171 9.233 25.496 6.835 25.687 4.78C25.878 2.726 25.781 0.968 25.781 0.968L25.749 0.0609999L24.843 0.0310001C24.843 0.0310001 24.412 0 23.717 0ZM22.811 2C23.209 2 23.491 2.023 23.78 2.031C23.791 2.613 23.815 3.219 23.686 4.594C23.51 6.488 22.932 8.598 22.28 9.25C21.39 10.14 17.998 12.84 14.936 15.188C13.2215 16.5057 11.5028 17.8181 9.78 19.125L6.717 16.062C7.127 15.512 8.53 13.598 10.592 10.906C12.936 7.852 15.643 4.449 16.561 3.531C17.245 2.848 19.331 2.27 21.217 2.094C21.7467 2.03946 22.2786 2.0081 22.811 2ZM18.248 5.531C17.131 5.531 16.248 6.445 16.248 7.562C16.248 8.68 17.131 9.594 18.248 9.594C18.7863 9.59268 19.3023 9.37831 19.683 8.99774C20.0638 8.61716 20.2784 8.10134 20.28 7.563C20.2787 7.02449 20.0642 6.50841 19.6834 6.12762C19.3026 5.74683 18.7865 5.53232 18.248 5.531ZM6.311 12.75L6.686 12.781C6.084 13.578 5.1 14.855 4.967 15.031L3.624 14.75L4.654 13.5C4.85136 13.253 5.1044 13.0563 5.39241 12.926C5.68042 12.7956 5.99521 12.7353 6.311 12.75ZM4.03 17.938C3.174 18.793 2.686 19.977 2.342 20.968C1.999 21.961 1.842 22.781 1.842 22.781L1.531 24.25L3 23.969C3 23.969 3.796 23.832 4.78 23.5C5.765 23.168 6.949 22.676 7.843 21.781L6.437 20.375C5.992 20.82 5.109 21.211 4.312 21.5C4.617 20.668 5.062 19.723 5.437 19.344L4.03 17.938ZM13.03 19.125L13.061 19.5C13.0822 19.8134 13.028 20.1273 12.9029 20.4155C12.7778 20.7036 12.5855 20.9575 12.342 21.156L11.061 22.188L10.78 20.844C10.956 20.714 12.233 19.723 13.03 19.125Z" fill="white"/>
</svg>
