<svg width="16" height="23" viewBox="0 0 16 23" fill="none" xmlns="http://www.w3.org/2000/svg">
<path d="M0 2.75046C0 2.02099 0.280951 1.3214 0.781048 0.805591C1.28115 0.28978 1.95942 0 2.66667 0L13.3333 0C14.0406 0 14.7189 0.28978 15.219 0.805591C15.719 1.3214 16 2.02099 16 2.75046V21.3161C15.9999 21.4405 15.9672 21.5625 15.9052 21.6692C15.8432 21.7759 15.7543 21.8632 15.648 21.9219C15.5417 21.9806 15.4219 22.0085 15.3015 22.0025C15.181 21.9966 15.0644 21.9571 14.964 21.8882L8 18.0169L1.036 21.8882C0.935607 21.9571 0.818974 21.9966 0.698522 22.0025C0.57807 22.0085 0.458311 21.9806 0.351999 21.9219C0.245688 21.8632 0.156805 21.7759 0.0948188 21.6692C0.032832 21.5625 6.22939e-05 21.4405 0 21.3161V2.75046ZM2.66667 1.37523C2.31304 1.37523 1.97391 1.52012 1.72386 1.77803C1.47381 2.03593 1.33333 2.38573 1.33333 2.75046V20.0316L7.63067 16.6183C7.74008 16.5432 7.86857 16.5031 8 16.5031C8.13143 16.5031 8.25992 16.5432 8.36933 16.6183L14.6667 20.0316V2.75046C14.6667 2.38573 14.5262 2.03593 14.2761 1.77803C14.0261 1.52012 13.687 1.37523 13.3333 1.37523H2.66667Z" fill="#6A6A6B"/>
</svg>
